<?xml version="1.0" encoding="UTF-8"?>
<svg id="Layer_1" data-name="Layer 1" xmlns="http://www.w3.org/2000/svg" xmlns:xlink="http://www.w3.org/1999/xlink" viewBox="0 0 815.06 809.85">
  <defs>
    <style>
      .cls-1 {
        fill: #b1b1b2;
      }

      .cls-2 {
        fill: url(#linear-gradient-8);
      }

      .cls-3 {
        fill: url(#linear-gradient-7);
      }

      .cls-4 {
        fill: url(#linear-gradient-5);
      }

      .cls-5 {
        fill: url(#linear-gradient-6);
      }

      .cls-6 {
        fill: url(#linear-gradient-9);
      }

      .cls-7 {
        fill: url(#linear-gradient-4);
      }

      .cls-8 {
        fill: url(#linear-gradient-3);
      }

      .cls-9 {
        fill: url(#linear-gradient-2);
      }

      .cls-10 {
        fill: #6d4437;
      }

      .cls-11 {
        opacity: .5;
      }

      .cls-11, .cls-12, .cls-13, .cls-14, .cls-15 {
        fill: #fff;
      }

      .cls-12 {
        opacity: .3;
      }

      .cls-13, .cls-16 {
        opacity: .65;
      }

      .cls-14 {
        opacity: .78;
      }

      .cls-17 {
        fill-rule: evenodd;
      }

      .cls-17, .cls-18 {
        fill: #d4ff00;
      }

      .cls-19 {
        fill: url(#linear-gradient);
      }

      .cls-19, .cls-20 {
        opacity: .3;
      }

      .cls-21 {
        fill: #9e7549;
      }

      .cls-22 {
        fill: url(#linear-gradient-10);
      }

      .cls-23 {
        fill: #af8550;
      }

      .cls-24 {
        fill: #d0d1d5;
      }

      .cls-25 {
        fill: #131f2d;
      }

      .cls-26 {
        fill: #364154;
      }

      .cls-27 {
        fill: #303a49;
      }
    </style>
    <linearGradient id="linear-gradient" x1="889.54" y1="941.93" x2="314.85" y2="330.16" gradientUnits="userSpaceOnUse">
      <stop offset="0" stop-color="#d4ff00"/>
      <stop offset=".04" stop-color="#d0f900"/>
      <stop offset=".48" stop-color="#b2c900"/>
      <stop offset=".81" stop-color="#9fac00"/>
      <stop offset="1" stop-color="#99a100"/>
    </linearGradient>
    <linearGradient id="linear-gradient-2" x1="647.37" y1="102.6" x2="494.12" y2="432.68" gradientUnits="userSpaceOnUse">
      <stop offset="0" stop-color="#d4ff00"/>
      <stop offset=".04" stop-color="#d0f900"/>
      <stop offset=".48" stop-color="#b2c900"/>
      <stop offset=".81" stop-color="#9fac00"/>
      <stop offset="1" stop-color="#99a100"/>
    </linearGradient>
    <linearGradient id="linear-gradient-3" x1="281.3" y1="660.74" x2="242.61" y2="660.28" gradientTransform="translate(-1.64 27.76) rotate(.44)" xlink:href="#linear-gradient-2"/>
    <linearGradient id="linear-gradient-4" x1="-7767.88" y1="613.36" x2="-7806.44" y2="612.9" gradientTransform="translate(-7685.39 -79.56) rotate(-178.85) scale(1 -1)" xlink:href="#linear-gradient-2"/>
    <linearGradient id="linear-gradient-5" x1="495.09" y1="529.45" x2="469.59" y2="498.05" gradientUnits="userSpaceOnUse">
      <stop offset="0" stop-color="#af8550"/>
      <stop offset="1" stop-color="#9e7549"/>
    </linearGradient>
    <linearGradient id="linear-gradient-6" x1="502.51" y1="679.86" x2="546.42" y2="679.86" gradientUnits="userSpaceOnUse">
      <stop offset="0" stop-color="#364154"/>
      <stop offset="1" stop-color="#131f2d"/>
    </linearGradient>
    <linearGradient id="linear-gradient-7" x1="531.05" y1="678.43" x2="593.4" y2="678.43" xlink:href="#linear-gradient-6"/>
    <linearGradient id="linear-gradient-8" x1="523.8" y1="632.68" x2="525.76" y2="473.53" xlink:href="#linear-gradient-2"/>
    <linearGradient id="linear-gradient-9" x1="580.56" y1="633.38" x2="582.53" y2="474.24" xlink:href="#linear-gradient-2"/>
    <linearGradient id="linear-gradient-10" x1="527.41" y1="464.24" x2="523.38" y2="437.53" xlink:href="#linear-gradient-5"/>
  </defs>
  <path class="cls-19" d="M716.99,696.49c-21.22,21.87-40.2,34.72-54.73,44.43-141.74,94.64-303.77,67.37-353.87,58.04-80.82-15.04-149.05-25.65-207.67-78.61C-32.48,600.01-26,348.97,75.78,193.47,87.85,175.03,189.48,24.39,351.86,3.16c3.97-.52,6.93-.81,9.53-1.09,25.12-2.66,180.78-16.7,307.71,89.64,18.17,15.22,47.41,42.68,74.52,84.55,99.14,153.12,99.46,390.26-26.63,520.23Z"/>
  <g>
    <path class="cls-26" d="M23.64,224.18v363.35c0,29.89,21.49,54.33,48.45,55.1,119.74,3.42,538.53,11.72,652.52,9.86,19.59-.32,35.46-17.7,36.03-39.4,2.2-84.41,5.77-287.39-7.44-381.62-2.78-19.84-17.9-34.68-36.01-35.33-100.33-3.56-544.28-14.85-658.21-12.02-19.65.49-35.34,18.28-35.34,40.06Z"/>
    <path class="cls-24" d="M44.21,222.41v345.2c0,17.45,12.64,31.67,28.38,31.93l635.62,8.7c15.61.26,28.4-13.66,28.46-30.96l1.06-342.12c.04-12.37-8.85-22.51-20.01-22.81l-650.75-14.57c-12.48-.34-22.76,10.78-22.76,24.62Z"/>
    <path class="cls-12" d="M67.64,234.19v312.66c0,15.81,11.87,28.69,26.66,28.92l597.01,7.88c14.66.23,26.68-12.37,26.73-28.04l1-309.87c.04-11.21-8.31-20.39-18.79-20.66l-611.22-13.2c-11.72-.3-21.38,9.77-21.38,22.3Z"/>
    <path class="cls-13" d="M741.45,622.31h-.02l-697.25-13.17c-.49,0-.88-.41-.87-.9,0-.49.4-.84.9-.87l697.25,13.17c.49,0,.88.41.87.9,0,.48-.4.87-.88.87Z"/>
  </g>
  <g>
    <path class="cls-18" d="M366.71,454.71c-35.39,0-64.19-28.79-64.19-64.19s28.79-64.19,64.19-64.19,64.19,28.79,64.19,64.19-28.79,64.19-64.19,64.19ZM366.71,337.09c-29.46,0-53.43,23.97-53.43,53.43s23.97,53.43,53.43,53.43,53.43-23.97,53.43-53.43-23.97-53.43-53.43-53.43Z"/>
    <path class="cls-17" d="M346.6,415.24v-46.15c0-4.93,5.37-7.99,9.61-5.47l38.88,23.07c4.15,2.46,4.15,8.48,0,10.94l-38.88,23.07c-4.24,2.52-9.61-.54-9.61-5.47Z"/>
  </g>
  <g>
    <g>
      <path class="cls-26" d="M808.11,370.1c1.46,68.92,6.2,306.66,3.94,390.91-.24,8.93-6.36,16.09-13.98,16.38-37.73,1.44-176.06,5.11-237.78,2.08-12.86-.63-23.08-12.81-23.34-27.86-1.28-72.34-4.11-275.82,2.61-369.03.81-11.17,8.3-20.06,17.83-21.18,41.09-4.81,180.02-16.56,233.34-12.52,9.62.73,17.15,9.95,17.39,21.22Z"/>
      <path class="cls-24" d="M791.27,391.25c2.03,55.63,8.44,240.7,6.4,309.13-.3,10-7.04,18.09-15.58,18.68-35.17,2.41-155.14,7.72-206.72,2.88-9.29-.87-16.58-9.66-17.08-20.54-2.61-56.75-10.12-229.08-8.17-296.75.31-10.8,7.46-19.61,16.65-20.58,38.04-4,165.53-13.5,209.36-10.71,8.23.53,14.77,8.25,15.12,17.88Z"/>
      <g class="cls-20">
        <path class="cls-15" d="M775.84,400.57c1.8,49.26,7.47,213.15,5.67,273.75-.26,8.86-6.23,16.02-13.79,16.54-31.14,2.13-137.38,6.83-183.06,2.55-8.22-.77-14.68-8.55-15.12-18.19-2.31-50.26-8.96-202.86-7.23-262.78.28-9.56,6.6-17.37,14.75-18.22,33.69-3.54,146.59-11.96,185.4-9.48,7.29.47,13.08,7.3,13.39,15.83Z"/>
      </g>
      <path class="cls-11" d="M714.85,360.93h0c0,2.11-1.41,3.86-3.21,3.97-8.91.55-34.02,2.09-45.24,2.85-2.21.15-3.95-2.18-3.53-4.72l.07-.43c.29-1.74,1.52-3.04,3.02-3.21,7.58-.81,30.47-3.07,45.63-2.43,1.82.08,3.25,1.84,3.25,3.97Z"/>
    </g>
    <g>
      <path class="cls-18" d="M717.77,597.88h-.28s-91.97-1.95-91.97-1.95c-7.08-.15-12.71-6.03-12.56-13.11l1.42-67.02c.15-6.93,5.9-12.56,12.83-12.56h.28s91.97,1.95,91.97,1.95c7.08.15,12.71,6.03,12.56,13.11l-1.42,67.02c-.15,6.93-5.9,12.56-12.83,12.56ZM627.29,512.15c-2.2,0-3.96,1.73-4,3.84l-1.42,67.02c-.05,2.16,1.68,3.96,3.84,4.01l92.06,1.95c2.11,0,3.87-1.72,3.92-3.84l1.42-67.02c.05-2.16-1.68-3.96-3.84-4.01l-91.97-1.96h0Z"/>
      <path class="cls-18" d="M672.55,553.12c-.93,0-1.87-.29-2.66-.88l-50.74-37.62c-1.98-1.47-2.39-4.26-.93-6.24,1.47-1.98,4.26-2.39,6.24-.93l48.19,35.74,49.02-33.28c2.04-1.39,4.81-.85,6.19,1.18,1.38,2.04.85,4.81-1.18,6.19l-51.63,35.05c-.76.51-1.63.77-2.5.77Z"/>
      <path class="cls-18" d="M620.76,593.78l-1.14-8.84.53,4.43-3.69-2.5c1.01-1.55,20.26-33.63,32.96-54.81,1.27-2.11,4-2.8,6.11-1.53,2.11,1.27,2.8,4,1.53,6.11,0,0-8.24,13.75-16.5,27.51-4.13,6.88-8.26,13.76-11.37,18.92q-6.28,10.42-8.43,10.72Z"/>
      <path class="cls-18" d="M722.06,595.93q-2.13-.39-7.96-11.07c-2.89-5.29-6.73-12.34-10.56-19.38-7.67-14.09-15.32-28.18-15.32-28.18-1.18-2.16-.37-4.87,1.79-6.04,2.16-1.18,4.87-.37,6.04,1.79,11.78,21.7,29.66,54.56,30.6,56.16l-3.79,2.34-.81,4.38Z"/>
    </g>
  </g>
  <g>
    <path class="cls-26" d="M373.83,270.73c0,103.26,86.87,186.97,194.04,186.97s198.84-87.37,198.84-190.63-91.67-183.31-198.84-183.31-194.04,83.71-194.04,186.97Z"/>
    <g class="cls-16">
      <path class="cls-15" d="M751.48,225.26c.12,0,.23-.01.35-.04.72-.18,1.14-.89.95-1.58-2.09-7.55-4.76-15.05-7.93-22.27-.29-.66-1.08-.96-1.76-.69-.68.28-1,1.04-.71,1.69,3.12,7.11,5.75,14.49,7.81,21.93.16.58.7.96,1.29.96Z"/>
      <path class="cls-15" d="M721.83,166.83c.28,0,.56-.09.81-.26.59-.43.71-1.24.26-1.81-35.95-45.94-93.86-73.36-154.91-73.36-26.07,0-51.29,5.09-74.95,15.13-.68.29-.98,1.05-.69,1.7.3.65,1.09.95,1.77.66,23.32-9.9,48.17-14.92,73.87-14.92,60.21,0,117.32,27.04,152.77,72.33.26.34.66.51,1.07.51Z"/>
    </g>
    <path class="cls-9" d="M400.23,270.73c0,89.38,75.2,161.84,167.96,161.84s172.12-75.63,172.12-165.01-79.35-158.68-172.12-158.68-167.96,72.46-167.96,161.84Z"/>
    <path class="cls-14" d="M697.39,262.33c.42,6.87,6.53,12.12,13.66,11.72,7.13-.4,12.57-6.29,12.16-13.16-.41-6.87-6.53-12.12-13.66-11.72-7.13.4-12.57,6.29-12.16,13.16Z"/>
    <path class="cls-14" d="M418.02,278c.41,6.87,6.53,12.12,13.66,11.72,7.13-.4,12.57-6.29,12.16-13.16-.41-6.87-6.53-12.12-13.66-11.71-7.13.4-12.57,6.29-12.16,13.16Z"/>
    <path class="cls-14" d="M593.43,389.81c-7.03,1.24-11.68,7.73-10.4,14.5,1.28,6.77,8.02,11.26,15.04,10.02,7.03-1.24,11.68-7.73,10.4-14.5-1.28-6.77-8.02-11.25-15.04-10.02Z"/>
    <path class="cls-14" d="M543.15,124.55c-7.03,1.24-11.68,7.73-10.4,14.5,1.28,6.77,8.02,11.25,15.04,10.02,7.03-1.24,11.68-7.73,10.4-14.5-1.28-6.77-8.02-11.25-15.04-10.02Z"/>
    <path class="cls-14" d="M501.5,396.94c-1.31,3.19-.99,6.19.73,6.68,1.72.5,4.18-1.69,5.49-4.89,1.31-3.19.99-6.19-.73-6.68-1.72-.5-4.18,1.69-5.49,4.89Z"/>
    <path class="cls-14" d="M613.89,145.34c-1.31,3.19-.99,6.19.73,6.68,1.72.5,4.18-1.69,5.49-4.89,1.31-3.19.99-6.19-.73-6.68-1.72-.49-4.18,1.69-5.49,4.89Z"/>
    <path class="cls-14" d="M442.81,349.11c-2.84,2.07-4.18,4.79-2.97,6.08,1.2,1.28,4.48.64,7.33-1.43,2.84-2.07,4.18-4.79,2.97-6.08-1.2-1.28-4.48-.64-7.33,1.43Z"/>
    <path class="cls-14" d="M674.44,190.31c-2.84,2.07-4.18,4.79-2.97,6.08,1.2,1.28,4.48.64,7.33-1.43,2.84-2.07,4.18-4.79,2.97-6.08-1.2-1.28-4.48-.64-7.33,1.43Z"/>
    <path class="cls-14" d="M435.44,206.65c-3.22-1.48-6.34-1.36-6.97.26-.63,1.62,1.47,4.13,4.69,5.61,3.22,1.48,6.34,1.36,6.97-.26.63-1.62-1.47-4.13-4.69-5.61Z"/>
    <path class="cls-14" d="M688.44,331.55c-3.22-1.48-6.34-1.36-6.97.26-.63,1.62,1.47,4.13,4.69,5.61,3.22,1.48,6.34,1.36,6.97-.26.63-1.62-1.47-4.13-4.69-5.61Z"/>
    <path class="cls-14" d="M488.9,153.43c-1.96-2.87-4.68-4.34-6.09-3.27-1.41,1.07-.97,4.27.99,7.14,1.96,2.87,4.68,4.34,6.09,3.27,1.41-1.07.97-4.27-.99-7.14Z"/>
    <path class="cls-14" d="M637.82,386.76c-1.96-2.87-4.68-4.34-6.09-3.27-1.41,1.07-.97,4.27.99,7.14,1.96,2.87,4.68,4.34,6.09,3.27,1.41-1.07.97-4.27-.99-7.14Z"/>
    <path class="cls-15" d="M573.43,265.71l103.88,49.92c2.01.97,4.37-.49,4.3-2.65l-.41-12.89c-.08-2.51,2.98-3.89,4.94-2.24l75.11,63.72c2.3,1.95.41,5.57-2.59,4.95l-96.74-19.9c-2.31-.48-3.15-3.24-1.47-4.84l11.33-10.76c1.4-1.33,1.1-3.58-.6-4.52l-100.56-55.74c-1.4-.78-1.9-2.49-1.13-3.86h0c.77-1.35,2.51-1.88,3.94-1.19Z"/>
    <path class="cls-15" d="M562.59,260.79l.21-97.87c-.03-2.17-2.46-3.51-4.42-2.46l-11.69,6.28c-2.27,1.22-4.96-.76-4.33-3.2l24.17-93.57c.74-2.86,4.94-2.91,5.75-.07l26.16,91.92c.63,2.2-1.54,4.19-3.79,3.48l-15.13-4.74c-1.87-.59-3.8.71-3.89,2.6l-7.1,97.71c-.07,1.56-1.42,2.77-3.03,2.74h0c-1.6-.03-2.89-1.28-2.91-2.82Z"/>
    <ellipse class="cls-15" cx="569.06" cy="266.04" rx="13.81" ry="13.31"/>
  </g>
  <g>
    <g>
      <path class="cls-10" d="M158.45,473.75c-.2.37-12.49,9.42-12.49,9.42,0,0,2.72,19.43,13.74,27.1,12.12,8.43,29.25-6.95,29.25-6.95,0,0,13.63,3.24,20.87-25.13,1.66-6.51-7.93-7.06-19.52-5.86-14.94,1.55-31.85,1.41-31.85,1.41Z"/>
      <path class="cls-18" d="M135.46,540.03c4.81-3.31,10.13-5.8,15.77-7.34,2.12-.58,13.55,2.75,20.62,2.58,9.7-.22,19.58-4.64,27.58-2.65,7.95,1.98,14.45,4.57,18.2,7.24,11.24,7.99,17.84,22.9,21.86,37.66-7.61,7.82-17.2,11.29-17.2,11.29l-1.77,71.77-42.44,21.71-48.44-24.32,1.74-70.13s-15.38-7.16-16.51-9.77c-1.13-2.61,7.01-28.72,20.58-38.05Z"/>
      <path class="cls-21" d="M115.6,577.77s-20.61,57.14,26.39,80.63c9.76-1.3,6.01-17.5,6.01-17.5,0,0-20.42-4.52-14.29-52.19-5.65-4.65-18.11-10.94-18.11-10.94Z"/>
      <path class="cls-21" d="M238.51,577.77s14.18,59.65-26.39,80.63c-9.76-1.3-6.01-17.5-6.01-17.5,0,0,16.46-8.11,14.29-52.19,5.65-4.65,18.11-10.94,18.11-10.94Z"/>
      <rect class="cls-24" x="129.1" y="599.57" width="93.06" height="62.85" rx="4.05" ry="4.05"/>
      <g>
        <path class="cls-25" d="M262.97,681.04c-10.65-2.44-35.26-1.13-35.26-1.13l-1,2.71-1.66,13.48s23.44,4.23,34.99,4.21c1.18,0,2.26-.18,3.24-.48.35-.32.7-.64,1.02-1,4.9-5.35,3.49-13.22-1.34-17.79Z"/>
        <path class="cls-8" d="M264.03,681.31c-.33-.09-.69-.18-1.06-.27,4.82,4.57,6.24,12.43,1.34,17.79-.33.36-.67.68-1.02,1,8.67-2.7,9.69-16,.74-18.52Z"/>
        <path class="cls-23" d="M220.64,679.16l4.17.18c2.24.1,4.35,1.19,5.86,3.03,1.51,1.84,2.28,4.28,2.15,6.76-.11,1.98-.92,3.83-2.26,5.14-1.34,1.31-3.09,1.98-4.88,1.85l-6.38-.45,1.34-16.5Z"/>
      </g>
      <g>
        <path class="cls-25" d="M80.49,679.75c10.71-2.12,35.28-.05,35.28-.05l.93,2.74,1.32,13.52s-23.54,3.5-35.09,3.14c-1.18-.04-2.25-.25-3.23-.58-.34-.33-.68-.67-1-1.03-4.77-5.5-3.16-13.32,1.78-17.74Z"/>
        <path class="cls-7" d="M79.43,679.98c.34-.08.69-.16,1.06-.23-4.93,4.42-6.55,12.24-1.78,17.74.32.37.65.7,1,1.03-8.6-2.96-9.29-16.29-.28-18.54Z"/>
        <path class="cls-23" d="M122.86,679.16l-4.17.05c-2.24.03-4.38,1.05-5.93,2.85-1.55,1.79-2.39,4.2-2.32,6.69.06,1.98.82,3.86,2.13,5.21,1.31,1.35,3.04,2.07,4.83,2l6.39-.26-.93-16.54Z"/>
      </g>
      <path class="cls-27" d="M265.95,638.8c-4.83-11.12-16.64-12.92-26.7-7.72-.18.23-63.85,32.86-120,47.16,1.61,5.15,2.43,10.64,2.61,16.03.03,1.2.01,2.39-.06,3.55,43.06-2.21,89.79-16.57,129.95-29.19,12.45-4.02,19.54-17.51,14.19-29.83Z"/>
      <path class="cls-26" d="M220.94,695.11c-.17-6.21,1.04-12,3.62-17.35.07-.25.16-.48.24-.72-3.21-.99-7.35-2.34-12.79-4.18-39.87-13.65-70.29-27.42-99.32-43.28-11.28-6.16-24.1-2.03-27.71,11.31-3.22,11.91,3.85,22.08,14.6,25.66,32.14,10.69,15.4,7.72,25.9,11.1,28.19,8.72,63.26,16.66,95.53,18.82-.02-.45-.05-.9-.07-1.35Z"/>
      <path class="cls-21" d="M151.23,532.7s4.29,18.58,25.11,18.2c21.21-.39,23.1-18.26,23.1-18.26l-13.85-2.96-1.16-15.43-20.84,1.54-.39,14.66-11.97,2.25Z"/>
      <path class="cls-23" d="M166.51,470.51s-23.88,46.25,4.45,57.48c19.98,7.92,32.51-30.72,28.77-41.18-5.78-16.18-9.58-14.26-9.58-14.26l-23.63-2.04Z"/>
      <path class="cls-10" d="M205.48,466.3c11.8,3.24,1.71,28.83-16.05,22.78-17.76-6.05-24.74-5.96-27.51-1.08-2.77,4.88-3.36,22.2-9.37,13.64-6.58-9.38-10.25-28.22-2.18-34.29,7.21-5.43,8.9-13.84,17.55-13.55,11.48.39,20.37-4.7,25.55-1.03,5.95,4.22,3.32,11.16,12,13.55Z"/>
      <path class="cls-23" d="M160.83,491.97s-5.09-5.48-5.91,1.12c-.82,6.6,1.8,15.11,4.87,10.45,3.07-4.66,1.04-11.57,1.04-11.57Z"/>
    </g>
    <path class="cls-1" d="M181.12,626.06c.49,3.33-1.29,6.36-4.63,6.85-3.33.49-6.44-1.81-6.93-5.14-.49-3.33,1.03-6.65,4.37-7.14,3.33-.49,6.7,2.09,7.19,5.43Z"/>
  </g>
  <g>
    <path class="cls-4" d="M458.58,503.8s0,46.78,20.51,42.96c12.53-2.33,19.95-52.72,19.95-52.72,0,0-12.96-28.88-14.41-19.42-10.52,68.71-18.36,16.12-26.04,29.18Z"/>
    <path class="cls-25" d="M513.66,781.46s1.55,8.77,2.31,17.44c.3,3.39-2.32,6.34-5.72,6.48-11.56.48-36.28,1.42-45.15,1.02-1.33-.06-2.21-1.42-1.71-2.66h0c.41-1.04,1.21-1.88,2.23-2.35l40.83-18.77,7.21-1.17Z"/>
    <path class="cls-23" d="M514.93,776.3l-1.24,10.49s-7.15,3.33-12.04-.42l2.96-11.69,10.32,1.62Z"/>
    <path class="cls-5" d="M513.99,579.17c.54,2.74,2.88,136.65-11.43,196.66-.23.98.26,1.99,1.19,2.37,2.2.9,6.5,2.2,11.66,2.37,1.6.05,3.03-.98,3.48-2.52,4.09-13.92,23.7-83.68,26.26-150.32,2.86-74.46,0-2.54,0-2.54l-1.68-46.03h-29.48Z"/>
    <path class="cls-25" d="M560.63,786.03s2.47,4.43,4.85,16.19c.43,2.12-1.05,4.16-3.21,4.37-3.82.38-9.69.86-14.4.83-2.17-.01-3.86-1.9-3.6-4.06.52-4.29,2.15-11.34,7.16-16.82l9.19-.5Z"/>
    <path class="cls-23" d="M562.8,772.54l-2.91,15.86s-2.87,2.14-8.56.59l1.39-17.06,10.08.62Z"/>
    <path class="cls-3" d="M570.65,583.28c11.71,70.65-2.54,174.62-7.34,194.97-.29,1.25-1.3,2.2-2.56,2.41-2.14.36-5.68.65-9.16-.37-1.2-.35-2.04-1.43-2.09-2.68-.64-16.45.52-117.45-10.39-157.37-.55-2.02-1.79-3.79-3.5-5l-21.17-15.05-1.62-24.33,57.84,7.41Z"/>
    <path class="cls-2" d="M494.76,452.07c42.75-4.27,75.08,6.54,75.08,6.54,10.46,61.02,1.83,131.4,1.83,131.4-27.16,7.12-57.8-4.35-57.8-4.35-4.51-25.5-23.32-84.4-23.32-84.4-8.57-1.06-16.61,3.27-14.76-8.63,1.85-11.9,13.59-40.02,18.98-40.56Z"/>
    <path class="cls-6" d="M556.39,492.59l13.46-33.97s32.77,22.27,38.16,50.5c-6.19.46-17.46,2.07-28.49,7.64-2.42-13.33-23.13-24.16-23.13-24.16Z"/>
    <path class="cls-23" d="M524.9,524.55s36.79,20.79,49.21,3.04c2.58-3.69,6.04-7.35,5.41-10.84,11.03-5.57,21.53-7.18,27.73-7.64,1.62,8.51-1.32,17.56-6.32,26.71-21.75,39.78-80.89-2.2-80.89-2.2l4.87-9.07Z"/>
    <g>
      <path class="cls-1" d="M518.15,538.66l-12.07-42.15c-.14-.48-.55-.83-1.04-.89-2.19-.26-8.52-.97-15.84-1.59-8.81-.75-19.05-1.35-25.16-.84-.87.07-1.39.99-1.01,1.77,3.48,7.04,17.78,35.66,24.95,45.04.24.31.6.49,1,.49l28.01-.26c.81,0,1.4-.79,1.17-1.57Z"/>
      <path class="cls-23" d="M524.47,533.92s2.8-11.5,1.67-15.58c-1.13-4.08-3.31-9.33-10.6-8.16-7.29,1.17-15.88,4.24-15.88,4.24,0,0,.43,5.32,5.97,3.6l-3.43,2.66s.49,4.26,5.17,1.98l-3.19,3.52s2.01,3.5,5.45,1.25c3.44-2.24,5.09,7.88,14.85,6.49Z"/>
      <path class="cls-23" d="M468.27,516.12s-8.48-8.26-9.69-12.32c-1.21-4.06-2.15-9.66,4.65-12.55,6.79-2.88,15.71-4.85,15.71-4.85,0,0,2.46,4.73-3.15,6.22l4.32.43s1.84,3.87-3.33,4.43l4.58,1.29s.15,4.03-3.95,3.96c-4.11-.07-.13,9.38-9.13,13.39Z"/>
    </g>
    <path class="cls-22" d="M530.04,425.28l11.16,32.28c.18.53-.03,1.13-.53,1.4-3.04,1.68-14.01,6.55-27.22-1.83-1.38-.87-2.31-2.3-2.52-3.91l-3.62-27.94h22.72Z"/>
    <g>
      <path class="cls-23" d="M496.7,417.29s3.61,25.88,10.35,32.51c6.74,6.63,18.65-2.83,24.96-16.74l-7.11-25.62-28.2,9.85Z"/>
      <path class="cls-10" d="M524.35,423.49c-.58.12-1.12-.29-1.15-.88-.08-1.79-.39-5.35-1.49-7.86,0,0,.96-2.44-6.47.63-7.42,3.07-18.56,7.55-24.45,3.6-5.74-3.85-10.22-20.74,5.51-16.08.6.18,1.21-.25,1.23-.88.08-2.69.97-8.81,7.4-10.15,6.01-1.25,8.93,1.7,10.09,3.43.34.51,1.06.57,1.48.13,1.98-2.1,7.21-6.46,13.87-2.68,5.49,3.12,6.02,6.75,5.7,8.95-.1.71.57,1.27,1.25,1.04,1.84-.63,4.72-.76,7.08,2.91,3.27,5.08-2.5,8.61-4.22,9.51-.28.15-.47.42-.51.74-.26,2.44-1.73,13.06-7.69,18.52-.52.47-1.35.23-1.56-.44l-3.11-10.22c-.14-.47-.63-.76-1.11-.66l-1.84.39Z"/>
      <path class="cls-23" d="M524.06,425.47s3.56-9.97,7.03-6.26c3.47,3.71-2.08,10.53-6.59,11.47l-.44-5.21Z"/>
    </g>
  </g>
</svg>