<?xml version="1.0" encoding="UTF-8"?>
<svg xmlns="http://www.w3.org/2000/svg" xmlns:xlink="http://www.w3.org/1999/xlink" viewBox="0 0 1080 1080">
  <defs>
    <style>
      .cls-1 {
        fill: #eaeaea;
      }

      .cls-2 {
        fill: url(#linear-gradient-5);
      }

      .cls-3 {
        fill: url(#linear-gradient-6);
      }

      .cls-4 {
        fill: url(#linear-gradient-4);
      }

      .cls-5 {
        fill: url(#linear-gradient-3);
      }

      .cls-6 {
        fill: url(#linear-gradient-2);
      }

      .cls-7 {
        fill: #2e2c51;
        mix-blend-mode: multiply;
        opacity: .2;
      }

      .cls-8 {
        fill: #6d4437;
      }

      .cls-9 {
        isolation: isolate;
      }

      .cls-10 {
        fill: #c6c6c6;
      }

      .cls-11 {
        fill: url(#linear-gradient);
        opacity: .3;
      }

      .cls-12 {
        fill: #fff;
      }

      .cls-13 {
        fill: #666;
      }

      .cls-14 {
        fill: #9e7549;
      }

      .cls-15 {
        fill: #d4ff00;
      }

      .cls-16 {
        fill: #af8550;
      }

      .cls-17 {
        fill: #131f2d;
      }

      .cls-18 {
        fill: #99a100;
      }

      .cls-19 {
        fill: #364154;
      }

      .cls-20 {
        fill: #4c4c4c;
      }
    </style>
    <linearGradient id="linear-gradient" x1="962.43" y1="1027.38" x2="442.58" y2="473.99" gradientUnits="userSpaceOnUse">
      <stop offset="0" stop-color="#d4ff00"/>
      <stop offset=".04" stop-color="#d0f900"/>
      <stop offset=".48" stop-color="#b2c900"/>
      <stop offset=".81" stop-color="#9fac00"/>
      <stop offset="1" stop-color="#99a100"/>
    </linearGradient>
    <linearGradient id="linear-gradient-2" x1="274.75" y1="708.98" x2="274.75" y2="564.14" gradientUnits="userSpaceOnUse">
      <stop offset="0" stop-color="#d4ff00"/>
      <stop offset=".04" stop-color="#d0f900"/>
      <stop offset=".48" stop-color="#b2c900"/>
      <stop offset=".81" stop-color="#9fac00"/>
      <stop offset="1" stop-color="#99a100"/>
    </linearGradient>
    <linearGradient id="linear-gradient-3" x1="292.77" y1="661.43" x2="292.77" y2="577.62" xlink:href="#linear-gradient-2"/>
    <linearGradient id="linear-gradient-4" x1="525.92" y1="347" x2="525.92" y2="281.39" xlink:href="#linear-gradient-2"/>
    <linearGradient id="linear-gradient-5" x1="553.9" y1="313.57" x2="530.96" y2="296.42" xlink:href="#linear-gradient-2"/>
    <linearGradient id="linear-gradient-6" x1="484.74" y1="341.88" x2="534.5" y2="299.86" xlink:href="#linear-gradient-2"/>
  </defs>
  <g class="cls-9">
    <g id="Layer_1" data-name="Layer 1">
      <g>
        <path class="cls-11" d="M845.28,767.51c-21.89,16.98-41.48,26.97-56.48,34.5-146.27,73.5-313.48,52.32-365.18,45.08-83.41-11.68-153.81-19.92-214.3-61.05-137.46-93.46-130.77-288.41-25.74-409.18,12.45-14.32,117.33-131.31,284.9-147.79,4.1-.4,7.16-.63,9.83-.85,25.92-2.07,186.56-12.97,317.54,69.62,18.75,11.82,48.92,33.14,76.9,65.66,102.31,118.91,102.63,303.08-27.48,404.01Z"/>
        <g>
          <g>
            <path class="cls-16" d="M332.02,668.54s7.17.82,12.73.49c6.95-.42,15.51-.59,17.1,1.26q1.59,1.85-1.5,3.48c-2.4,1.27-11.67,5.35-17.92,3.42-6.26-1.94-14.25-1.54-14.25-1.54l3.84-7.1Z"/>
            <path class="cls-18" d="M255.43,600.2s13.37,66.2,29.28,71.26c7.85,2.49,42.17,7.16,52.24,7.24,0,0,2.34-2.14,1.26-10.22,0,0-36.31-10.93-41.78-17.73-8.14-10.11,2.1-43.42-7.92-52.77-10.02-9.36-26.15-12.67-33.07,2.22Z"/>
          </g>
          <rect class="cls-10" x="258.28" y="733.02" width="8.96" height="113.89" rx="4.48" ry="4.48" transform="translate(525.51 1579.93) rotate(180)"/>
          <path class="cls-10" d="M222.6,854.4c4.21-8.71,20.59-15.21,40.16-15.21s35.95,6.5,40.16,15.21h-80.32Z"/>
          <rect class="cls-10" x="232.16" y="820.27" width="61.18" height="4.59" rx="2.29" ry="2.29" transform="translate(525.51 1645.12) rotate(-180)"/>
          <path class="cls-20" d="M257.54,722.65c2.75,4.66,5.92,9.02,9.19,13.15,10.11,12.77,21.12,23.3,23.04,33.25.38,1.98.99,4.12,1.78,6.37.8,2.28,1.79,4.68,2.93,7.15,4.29,9.32,10.71,19.77,17.12,29.26,11.08,16.41,21.49,30.11,21.49,30.11l19.1-.81c-.77-1.91-9.1-24.58-20.24-52.28-4.53-11.24-9.34-23.2-13.98-34.74-.62-1.54-1.24-3.07-1.85-4.59-1.42-3.53-2.82-7-4.18-10.39-10.47-26.01-18.8-46.72-18.8-46.72,0,0-41.83-15.85-46.17-5.58-3.58,8.47-.66,16.76,10.57,35.81Z"/>
          <path class="cls-17" d="M333.69,838.47s.98,15.76,4.03,15.99c.41.03,15.47.03,15.47.03l19.23-.11s-.13-4.63-5.75-5.61c-5.62-.98-15.03-4.93-18.43-12.36-3.58-7.81-14.54,2.06-14.54,2.06Z"/>
          <path class="cls-17" d="M289.46,793.43s-13.29,8.54-12,11.31c.17.37,7.51,13.52,7.51,13.52l9.47,16.73s3.98-2.37,2.1-7.75c-1.88-5.38-3.02-15.52,1.8-22.12,5.08-6.94-8.89-11.69-8.89-11.69Z"/>
          <path class="cls-13" d="M308.17,685.36s56.62,40.67,62.8,53.45c4.83,9.98-72.11,73.41-72.11,73.41,0,0-11.21-11.1-12.67-16.47,0,0,26.5-38.09,47.5-50.45,6.25-3.68-74.96-12.67-83.75-26.34-8.79-13.68-3.95-31.79-3.95-31.79l62.18-1.8Z"/>
          <rect class="cls-19" x="204.81" y="718.95" width="115.27" height="26.31" rx="13.15" ry="13.15" transform="translate(524.9 1464.2) rotate(180)"/>
          <path class="cls-16" d="M283.16,570.28c5.16,3.19,8,7.25,8,7.25-12.58,3.25-33.43-8.4-33.43-8.4,0,0,8.1-5.44,11.1-17.39.15-.6.29-1.22.41-1.85.39-2.01.64-4.19.68-6.54l5.78,5.18,9.61,8.61s-.22,3.57-1.42,9.72c-.21,1.07-.45,2.22-.72,3.45Z"/>
          <path class="cls-6" d="M309.02,683.15c-.03.13-.07.26-.11.39-1.21,3.4-19.52,14.94-31.88,19.53-7.72,2.86-34.5,9.26-36.26,3.75-2.04-6.38,5.44-52.92,3.63-77.15-2.12-29.62,6.08-56.58,17.48-65.39.86-.63,2.57,1.05,7.51,3.39,4.56,2.16,9.6,2.78,13.87,1.85l3.82,3.28c5.29,4.75,11.1,11.24,13.73,21.19,1.61,6.1,2.83,15.76,3.73,26.61.34,4.21.65,8.6.91,13.03.41,7.06.76,14.18.93,20.94,0,.13.01.26.01.39v.24c.08.68.09,1.43.09,2.11.02.68.04,1.37.06,2.04.12,5.3.12,10.21.3,14.46.09,2.13.52,3.66.98,4.88.47,1.24.96,2.15,1.17,3.02.11.47.13.93.02,1.43Z"/>
          <path class="cls-14" d="M285.3,557.12s-.22,3.57-1.42,9.72c-9.38-3.03-13.64-11.51-15.06-15.1-.4-1.02-.58-1.64-.58-1.64,0,0,.36-.08.99-.21,1.32-.28,3.8-.81,6.46-1.37l9.61,8.61Z"/>
          <path class="cls-16" d="M288.17,560.14s-20.74-.53-20.21-13.44c.53-12.91-1.79-21.67,11.47-21.88,13.26-.21,15.63,4.82,16.5,9.17.87,4.35-2.35,25.95-7.76,26.14Z"/>
          <g>
            <rect class="cls-19" x="370.02" y="623.1" width="1.9" height="49.68" transform="translate(523.58 1378.8) rotate(-162)"/>
            <rect class="cls-19" x="312.11" y="668.18" width="52.13" height="3.12" transform="translate(661.97 1346.54) rotate(-178.78)"/>
          </g>
          <path class="cls-8" d="M265.38,522.71c-.13-.22-.48-.44-1.31-.63,0,0,.75-.3,1.65-.16.38-1.14,1.37-3.09,3.47-3.24,0,0-1.18.38-1.54,1.6,2.75-1.98,8.05-2.83,21.68.71,17.96,4.67,9.89,15.26,7.28,16.23-2.6.97-7.86-3.89-12.32-4.32-4.45-.43-6.42,5.77-8.06,6.38-1.64.61-.79-.83-2.64-2.1-1.85-1.27-2.64,2.04-2.44,4.31.2,2.28-3.08,4.65-3.08,4.65l-2.26-3.51c-2.26-3.51-2.64-16.75-.88-19.25.16-.22.31-.44.47-.67Z"/>
          <path class="cls-7" d="M307.84,678.7c-5.03-.82-17.47-3.31-26.5-8.96-16.3-10.2-25.9-61.97-25.9-61.97l25.53,32.69,25.56,18.71.03.19c.12,5.3.12,10.21.3,14.46.09,2.13.52,3.66.98,4.88Z"/>
          <g>
            <path class="cls-16" d="M332.1,654.7s1.81.6,3.92,0c2.11-.6,9.35-2.41,10.56-1.81,1.21.6,4.98,3.62,5.88,4.22.91.6,2.26,3.17,2.26,3.17-.83.61-3.09-1.46-4.22-1.61-1.13-.15-10.19,3.05-12.68,2.74-2.49-.3-6.26-1.43-6.26-1.43l.53-5.28Z"/>
            <path class="cls-16" d="M347.12,657.5c0,.14,2.47,3.99,4.95,3.3l-2.12-2.9-2.83-.4Z"/>
            <path class="cls-16" d="M336.02,654.7s3.11-2.07,4.21-3.13c0,0,.5.33.45.79-.09.77-1.06,2.05-1.06,2.05l-3.6.28Z"/>
          </g>
          <path class="cls-5" d="M281.37,581.97c-13.42-11.48-33.55,1.51-28.73,18.5,5.6,19.69,16.41,52.18,27.53,55.33,7.92,2.25,42.37,5.85,52.44,5.61,0,0,1.87.71.53-7.33,0,0-37.77-11.67-41.91-19.34-2.22-4.11.75-43.46-9.56-52.5-.1-.09-.21-.18-.31-.27Z"/>
        </g>
        <g>
          <path class="cls-1" d="M604.55,610.03c-.39.55-2.05,3.2.08,6.19.14.19.23.34.28.47,25.54,15.34,102.14,77.41,102.14,121.16v90.63h-231.17v-90.67c0-44.03,77.64-107.09,102.62-121.6h0c.8-1.12,1.06-2.19,1.06-3.13,0-1.87-1.06-3.17-1.06-3.17-25.04-14.84-102.62-77.43-102.62-121.46v-90.63h231.17v90.67c0,43.96-77.39,106.89-102.5,121.53Z"/>
          <path class="cls-19" d="M484.13,828.49h213.8c12.36,0,22.39,10.03,22.39,22.39v.96h-259.53c0-12.89,10.46-23.35,23.35-23.35Z"/>
          <path class="cls-10" d="M542.05,743.43c-1.18,20.29,2.67,64.05,2.33,85.06h-68.5v-90.67c0-44.03,77.64-107.09,102.62-121.6h0c.8-1.12,1.06-2.19,1.06-3.13,0-1.87-1.06-3.17-1.06-3.17-25.04-14.84-102.62-77.43-102.62-121.46v-90.63h45.82l32.71,8.95v71.68s-3.24,20.65,4.87,40.92c8.11,20.28,25.52,85.33,25.26,93.78-.27,8.45-40.46,95.5-42.49,130.27Z"/>
          <path class="cls-15" d="M677.1,458.08c-14.01.21-38.11,2.74-77.09,12.57-26.69,6.73-72.7,1.66-97.04-1.82-8.54-1.22-16.18,5.4-16.18,14.02v10.45c0,28.78,77.45,91.13,97.93,107.12,3.1,2.42,4.92,6.14,4.92,10.07v160.06c0,5.46-2.7,10.55-7.17,13.69-16.11,11.27-43.25,44.26-43.25,44.26h102.64s-27.53-31.83-42.97-43.65c-3.53-2.7-5.61-6.87-5.61-11.31v-163.09c0-3.91,1.78-7.61,4.83-10.06,20.08-16.08,95.83-78.66,95.83-107.42v-18.27c0-9.27-7.59-16.74-16.86-16.6Z"/>
          <path class="cls-19" d="M460.78,383.43h259.53c0,12.89-10.46,23.35-23.35,23.35h-213.68c-12.42,0-22.51-10.09-22.51-22.51v-.84h0Z"/>
        </g>
        <g>
          <polygon class="cls-10" points="266.06 447.08 326.88 455.75 286.52 428.25 284.47 437.07 269.68 439.74 266.06 447.08"/>
          <polygon class="cls-1" points="326.88 455.75 276.27 429.66 226.67 427.17 326.88 455.75"/>
          <polygon class="cls-1" points="286.52 428.25 326.88 455.75 295.63 412.76 286.52 428.25"/>
        </g>
        <g>
          <path class="cls-20" d="M574.55,372.3c-5.41,9.42-12.22,13.06-12.22,13.06h-28.32s44.68-20.25,40.55-13.06Z"/>
          <g>
            <path class="cls-16" d="M552.8,445.19c-.74.85-.83,1.79-.47,2.8,0,0,0,.01,0,.01.68,1.87,2.91,3.95,5.5,6.03.33.27.63.51.88.74.07.06.13.12.2.18.05.05.1.09.15.14,2.42,2.23,1.51,2.74,5.85,7.26,4.95,5.15,8.36,5.25,9.33,4.78.82-.4-.85-3.13-2.69-6.2-.09-.15-.18-.3-.27-.45-.25-.41-.49-.82-.73-1.23-2.17-3.7-1.61-5.43-1.1-10.93.42-4.47,6.96-24.98,6.96-24.98l-9.49-1.63s-2.86,16.33-6.01,18.84c-1.68,1.34-3.57,1.36-5.19,2.35-.11.07-.23.14-.34.21-.92.61-1.86,1.24-2.6,2.09Z"/>
            <path class="cls-17" d="M552.8,445.19c-.74.85-.83,1.79-.47,2.8,0,0,0,.01,0,.01.83,1.87,3,3.94,5.51,6.01.33.27.62.52.87.75.07.06.13.12.2.18.05.05.1.09.15.14,2.42,2.23,1.51,2.74,5.85,7.26,4.95,5.15,8.36,5.25,9.33,4.78.82-.4-.85-3.13-2.69-6.2-.96-.35-5.44-2.17-8.83-6.5-2.98-3.81-4.97-8.69-7-11.53-.11.07-.23.14-.34.21-.92.61-1.86,1.24-2.6,2.09Z"/>
            <path class="cls-16" d="M629.32,439.27c.59,2.93,4.76,2.44,9.43,1.3,4.67-1.14,3.56.22,10.2-.52,6.64-.73,8.65-3.21,8.85-4.2.18-.88-3.1-1.19-6.62-1.59-.44-.05-.89-.1-1.33-.16-3.97-.5-6.88-3.06-10.49-5.17-3.42-1.99-8.52-10.12-8.52-10.12l-9.11.72s4.78,7.26,6.63,10.41c1.09,1.86,1.03,4.31.89,6.21-.07,1.03-.14,2.08.07,3.12Z"/>
            <path class="cls-17" d="M638.75,440.57c4.67-1.14,3.56.22,10.2-.52,6.64-.73,8.65-3.21,8.85-4.2.18-.88-3.1-1.19-6.62-1.59l-.03.07s-3.98,2.82-9.51,2.96c-4.5.11-9.28-1.18-12.39-1.13-.07,1.03-.14,2.08.07,3.12.59,2.93,4.76,2.44,9.43,1.3Z"/>
            <path class="cls-20" d="M594.43,381.04l-8.51,22.91-11.11,29.91s-3.02.29-5.9-.54c-2.66-.77-5.71-2.78-5.71-2.78,0,0,3.09-32.11,8.84-50.55,1.48-4.73,3.13-8.56,4.95-10.71,8.92-10.55,17.44,11.77,17.44,11.77Z"/>
            <path class="cls-13" d="M585.77,344.66c-5.58-1.8-21.48.51-37.46,3.64l-3.35-5.52-34.51-2.7s-11.39,25.25-5.15,41.35c.92,2.37,3.18,3.36,6.29,3.41,0,0,0,0,0,0,0,0,20.59.5,27.26.5,17.16,0,36.32-11.8,38.8-12.29,4.06-.81,5.68,7.3,9.74,15.82,4.06,8.52,38.13,37.73,38.13,37.73,0,0,5.24.05,7.4-.76,2.33-.87,3.18-2.01,3.18-2.01,0,0-37.76-75.13-50.34-79.18Z"/>
            <path class="cls-8" d="M541.3,241.44c-2.59-1.54-5.11-1.76-6.64-1.71-1.1.04-2.2-.07-3.3-.22-13.08-1.76-20.95,17.25-21.41,23-.85,10.61-6.47,12.23-14.37,18.88-15.85,13.33-11.2,28.81-2.53,34.57,5.2,3.45,14.36,0,14.36,0,.13.09,25.06-13.94,37.35-20.7,18.42-2.62,3.94-49.41-3.46-53.82Z"/>
            <path class="cls-16" d="M534.46,289.5c.05.03-6.05,2.12-10.13.31-3.84-1.7-6.74-8.01-6.69-8.01,1.75-.08,3.66-1.61,5.14-11.62l.74.27,12.5,4.5s-.91,4.01-1.49,7.83c-.49,3.21-.76,6.28-.08,6.73Z"/>
            <path class="cls-14" d="M536.03,274.94s-.91,4.01-1.49,7.83c-7.18-1.29-10-8.44-11.01-12.33l12.5,4.5Z"/>
            <path class="cls-16" d="M537.89,278.92s-17.1-2.3-15.51-12.92c1.59-10.63.46-18.08,11.45-17.07,10.99,1.02,12.49,5.39,12.83,9.07.33,3.68-4.27,21.25-8.76,20.92Z"/>
            <path class="cls-8" d="M546.03,252.17s-10.95,9.43-18.39,10.19c-7.45.76-10.27-1.63-10.27-1.63,0,0,4.39-3.64,7.03-9.52.78-1.73,2.42-2.92,4.32-3.09,5.32-.46,15.4-.67,17.31,4.05Z"/>
            <path class="cls-8" d="M539.19,251.33s3.66,3.54,4.82,6.17c1.11,2.53,1.45,8.6.56,11,0,0,5.71-11.09,2.48-16.49-3.43-5.72-7.85-.69-7.85-.69Z"/>
            <path class="cls-4" d="M548.86,314.69c-.52,34.62-.14,27.38-3.93,30.67-.91.79-3.48,1.26-6.85,1.49-10.61.7-29.27-1.04-29.98-3.01-2.45-6.79-.72-8.9-2.76-19.29-.21-1.11-.48-2.3-.79-3.6-1.7-7.14-3.36-9.57,2.68-21.03,5.48-10.39,11.17-18.82,11.68-18.51,14.46,8.58,15.62,1.37,15.62,1.37,0,0,14.58,15.03,14.32,31.92Z"/>
            <path class="cls-13" d="M585.92,403.95l-11.11,29.91s-3.02.29-5.9-.54c-2.66-.77-5.71-2.78-5.71-2.78,0,0,3.09-32.11,8.84-50.55l13.88,23.96Z"/>
            <path class="cls-2" d="M534.54,282.77s14.88,2.52,16.62,8.93c1.75,6.4,12.03,44.06,12.03,44.06,0,0-7.56,1.36-11.06-2.13-3.49-3.49-12.16-32.41-12.16-32.41l-5.44-18.44Z"/>
            <path class="cls-7" d="M538.08,346.84c-10.61.7-29.27-1.04-29.98-3.01-2.45-6.79-.72-8.9-2.76-19.29l5.12-14.42s-.85,16.05,3.89,20.28c4.73,4.22,19.38,8.15,21.69,11.68,1.11,1.69,1.84,3.39,2.05,4.75Z"/>
            <path class="cls-16" d="M525.92,340.09s10.47-2.33,12.16-1.4,5.82,4.31,6.34,5.49c.52,1.18-3.76-.89-5.15-1.27-.9-.24-3.27.58-4.45.97-4.94,1.65-7.97.8-7.97.8l-.93-4.6Z"/>
            <path class="cls-3" d="M518.91,281.39s-14.06.87-18.93,7.66c-6.85,9.56-20.44,50.29-12.65,55.72,8.77,6.12,39.93,1.6,39.93,1.6,0,0,1.04-4.85-.41-7.19-1.44-2.34-24.88-6.13-25.97-7.21-1.08-1.08,13.52-21.1,13.52-24.34s4.5-26.23,4.5-26.23Z"/>
            <path class="cls-16" d="M538.59,341.6s2.19,2.83,2.91,3.17c.72.34,1.18.25,1.18.25l-1.48-2.66-2.62-.76Z"/>
            <path class="cls-16" d="M538.08,338.69l6.38,3.1s-.27.44-1.06.41c-.79-.04-2.77-.76-2.77-.76l-2.56-2.75Z"/>
          </g>
          <g>
            <g>
              <polygon class="cls-1" points="541.5 349.11 591.97 349.11 607.15 311.36 556.76 311.36 541.5 349.11"/>
              <polygon class="cls-10" points="592.56 347.63 525.92 347.63 525.92 349.11 591.97 349.11 592.56 347.63"/>
            </g>
            <path class="cls-12" d="M579.23,330.23c.38-1.33-.39-2.4-1.71-2.4s-2.71,1.08-3.09,2.4c-.38,1.33.39,2.4,1.71,2.4s2.71-1.08,3.09-2.4Z"/>
          </g>
        </g>
        <g>
          <path class="cls-1" d="M907.72,374.36l10.84,34.81c.16.51.22,1.04.2,1.54-.08,1.85-1.3,3.53-3.17,4.11l-60.46,18.82c-1.87.58-3.84-.12-4.95-1.61-.3-.4-.54-.86-.69-1.36l-10.83-34.8c-.74-2.38.59-4.91,2.96-5.65l60.46-18.82c2.37-.74,4.89.58,5.64,2.95Z"/>
          <g>
            <path class="cls-10" d="M918.75,410.71c-.08,1.85-1.3,3.53-3.17,4.11l-60.46,18.82c-1.87.58-3.84-.12-4.95-1.61l30.35-28.96,38.23,7.64Z"/>
            <path class="cls-12" d="M907.72,374.36l-26.47,34.46-42.05-11.17-.55-1.78c-.74-2.38.59-4.91,2.96-5.65l60.46-18.82c2.37-.74,4.89.58,5.64,2.95Z"/>
          </g>
        </g>
        <g>
          <path class="cls-1" d="M696.22,246.78l-7.59,29.08c-.11.43-.3.82-.53,1.16-.86,1.26-2.45,1.9-4,1.49l-50.51-13.18c-1.56-.41-2.63-1.76-2.76-3.28-.04-.41,0-.83.11-1.25l7.59-29.07c.52-1.99,2.55-3.18,4.53-2.66l50.51,13.18c1.98.52,3.17,2.54,2.66,4.53Z"/>
          <g>
            <path class="cls-10" d="M688.1,277.03c-.86,1.26-2.45,1.9-4,1.49l-50.51-13.18c-1.56-.41-2.63-1.76-2.76-3.28l33.85-7.03,23.42,22Z"/>
            <path class="cls-12" d="M696.22,246.78l-33.54,12.58-24.55-26.14.39-1.49c.52-1.99,2.55-3.18,4.53-2.66l50.51,13.18c1.98.52,3.17,2.54,2.66,4.53Z"/>
          </g>
        </g>
        <path class="cls-19" d="M72.25,851.84h935.5c.75,0,1.36.61,1.36,1.36h0c0,.75-.61,1.36-1.36,1.36H72.25c-.75,0-1.36-.61-1.36-1.36h0c0-.75.61-1.36,1.36-1.36Z"/>
      </g>
    </g>
  </g>
</svg>